<svg width="43" height="43" viewBox="0 0 43 43" fill="none" xmlns="http://www.w3.org/2000/svg">
<path d="M24.7721 16.9415V22.0165H29.3221C29.6721 22.0165 29.8471 22.3665 29.8471 22.7165L29.1471 26.0415C29.1471 26.2165 28.7971 26.3915 28.6221 26.3915H24.7721V39.1665H19.5221V26.5665H16.5471C16.1971 26.5665 16.0221 26.3915 16.0221 26.0415V22.7165C16.0221 22.3665 16.1971 22.1915 16.5471 22.1915H19.5221V16.4165C19.5221 13.4415 21.7971 11.1665 24.7721 11.1665H29.4971C29.8471 11.1665 30.0221 11.3415 30.0221 11.6915V15.8915C30.0221 16.2415 29.8471 16.4165 29.4971 16.4165H25.2971C24.9471 16.4165 24.7721 16.5915 24.7721 16.9415V16.9415Z" stroke="white" stroke-width="3" stroke-miterlimit="10" stroke-linecap="round"/>
<path d="M26.5221 39.1665H16.0221C7.27213 39.1665 3.77213 35.6665 3.77213 26.9165V16.4165C3.77213 7.6665 7.27213 4.1665 16.0221 4.1665H26.5221C35.2721 4.1665 38.7721 7.6665 38.7721 16.4165V26.9165C38.7721 35.6665 35.2721 39.1665 26.5221 39.1665Z" stroke="white" stroke-width="3" stroke-linecap="round" stroke-linejoin="round"/>
</svg>
