<svg width="43" height="43" viewBox="0 0 43 43" fill="none" xmlns="http://www.w3.org/2000/svg">
<path d="M15.8563 39.1665H26.3563C35.1063 39.1665 38.6063 35.6665 38.6063 26.9165V16.4165C38.6063 7.6665 35.1063 4.1665 26.3563 4.1665H15.8563C7.10632 4.1665 3.60632 7.6665 3.60632 16.4165V26.9165C3.60632 35.6665 7.10632 39.1665 15.8563 39.1665Z" stroke="white" stroke-width="3" stroke-linecap="round" stroke-linejoin="round"/>
<path d="M21.1063 27.7915C21.9107 27.7915 22.7071 27.6331 23.4503 27.3253C24.1934 27.0175 24.8686 26.5663 25.4374 25.9975C26.0061 25.4288 26.4573 24.7536 26.7651 24.0104C27.0729 23.2673 27.2313 22.4709 27.2313 21.6665C27.2313 20.8622 27.0729 20.0657 26.7651 19.3226C26.4573 18.5794 26.0061 17.9042 25.4374 17.3355C24.8686 16.7667 24.1934 16.3156 23.4503 16.0077C22.7071 15.6999 21.9107 15.5415 21.1063 15.5415C19.4819 15.5415 17.924 16.1868 16.7753 17.3355C15.6266 18.4841 14.9813 20.0421 14.9813 21.6665C14.9813 23.291 15.6266 24.8489 16.7753 25.9975C17.924 27.1462 19.4819 27.7915 21.1063 27.7915V27.7915Z" stroke="white" stroke-width="3" stroke-linecap="round" stroke-linejoin="round"/>
<path d="M30.9693 12.9165H30.9907" stroke="white" stroke-width="4" stroke-linecap="round" stroke-linejoin="round"/>
</svg>
