<svg width="38" height="38" viewBox="0 0 38 38" fill="none" xmlns="http://www.w3.org/2000/svg">
<path d="M31.9717 2.14795H6.47168C4.12447 2.14795 2.22168 4.05074 2.22168 6.39795V31.8979C2.22168 34.2452 4.12447 36.1479 6.47168 36.1479H31.9717C34.3189 36.1479 36.2217 34.2452 36.2217 31.8979V6.39795C36.2217 4.05074 34.3189 2.14795 31.9717 2.14795Z" stroke="white" stroke-width="3.5" stroke-linecap="round" stroke-linejoin="round"/>
<path d="M10.721 17.0229V27.6479" stroke="white" stroke-width="3.5" stroke-linecap="round" stroke-linejoin="round"/>
<path d="M10.721 10.6475V10.6697" stroke="white" stroke-width="3.5" stroke-linecap="round" stroke-linejoin="round"/>
<path d="M19.2213 27.6479V17.0229" stroke="white" stroke-width="3.5" stroke-linecap="round" stroke-linejoin="round"/>
<path d="M27.7213 27.6479V21.2729C27.7213 20.1458 27.2735 19.0648 26.4765 18.2677C25.6795 17.4707 24.5985 17.0229 23.4713 17.0229C22.3441 17.0229 21.2631 17.4707 20.4661 18.2677C19.6691 19.0648 19.2213 20.1458 19.2213 21.2729" stroke="white" stroke-width="3.5" stroke-linecap="round" stroke-linejoin="round"/>
</svg>
