<svg width="34" height="34" viewBox="0 0 34 34" fill="none" xmlns="http://www.w3.org/2000/svg">
<path d="M9.77498 29.1835C11.9 30.4585 14.45 31.1668 17 31.1668C24.7916 31.1668 31.1666 24.7918 31.1666 17.0002C31.1666 9.2085 24.7916 2.8335 17 2.8335C9.20831 2.8335 2.83331 9.2085 2.83331 17.0002C2.83331 19.5502 3.54165 21.9585 4.67498 24.0835L3.45665 28.767C3.39379 29.0088 3.39599 29.2629 3.46302 29.5035C3.53005 29.7442 3.65952 29.9629 3.83831 30.1373C4.01711 30.3118 4.23886 30.4359 4.48108 30.497C4.72331 30.5582 4.97739 30.5542 5.21756 30.4854L9.77498 29.1835Z" stroke="white" stroke-width="1.5" stroke-miterlimit="10" stroke-linecap="round" stroke-linejoin="round"/>
<path d="M23.375 21.0347C23.375 21.2642 23.324 21.5007 23.2149 21.7302C23.1036 21.9674 22.9575 22.1866 22.7814 22.3805C22.4683 22.7248 22.1241 22.9727 21.7331 23.1328C21.3506 23.2928 20.9355 23.375 20.4893 23.375C19.8376 23.375 19.142 23.222 18.4067 22.9103C17.6295 22.5733 16.8928 22.1494 16.2109 21.6467C15.4693 21.1049 14.7694 20.5082 14.1171 19.8617C13.4717 19.213 12.8764 18.5164 12.3363 17.7777C11.84 17.1018 11.42 16.373 11.084 15.6046C10.778 14.875 10.625 14.1808 10.625 13.5193C10.625 13.0858 10.7015 12.6721 10.8545 12.2896C11.0075 11.9 11.2512 11.543 11.5897 11.2242C11.9977 10.8219 12.444 10.625 12.9172 10.625C13.0957 10.625 13.2742 10.6632 13.4342 10.7397C13.6 10.8162 13.7459 10.931 13.8621 11.0968L15.3439 13.1821C15.4573 13.3408 15.5422 13.4881 15.5989 13.6283C15.6556 13.7615 15.6882 13.8961 15.6882 14.0165C15.6863 14.1772 15.6397 14.3342 15.5536 14.4698C15.4552 14.6357 15.3352 14.7877 15.1966 14.9217L14.7107 15.4261C14.6769 15.4592 14.6503 15.4989 14.6328 15.5428C14.6152 15.5867 14.607 15.6338 14.6087 15.6811C14.6087 15.7307 14.6158 15.776 14.6285 15.827C14.6469 15.878 14.6668 15.9162 14.6795 15.9545C14.7928 16.1656 14.9912 16.439 15.2731 16.7705C15.5607 17.102 15.8667 17.4406 16.1982 17.7777C16.5438 18.1163 16.8753 18.428 17.2139 18.7156C17.5454 18.9947 17.8203 19.1859 18.037 19.3007L18.1532 19.3531C18.204 19.3712 18.2578 19.3799 18.3118 19.3786C18.3607 19.3796 18.4093 19.3705 18.4544 19.3517C18.4995 19.3329 18.5402 19.3049 18.5739 19.2695L19.0584 18.7907C19.2185 18.632 19.3715 18.5116 19.5188 18.4337C19.6543 18.3473 19.8115 18.3012 19.9722 18.3005C20.1063 18.3025 20.2386 18.3309 20.3617 18.3841C20.502 18.4408 20.6493 18.5229 20.808 18.632L22.9217 20.1308C23.0748 20.2305 23.1966 20.3714 23.273 20.5374C23.3392 20.6949 23.3739 20.8638 23.375 21.0347V21.0347Z" stroke="white" stroke-width="1.5" stroke-miterlimit="10"/>
</svg>
